<?xml version="1.0" standalone="no"?>
<!DOCTYPE svg PUBLIC "-//W3C//DTD SVG 20010904//EN"
 "http://www.w3.org/TR/2001/REC-SVG-20010904/DTD/svg10.dtd">
<svg version="1.0" xmlns="http://www.w3.org/2000/svg"
 width="512.000000pt" height="512.000000pt" viewBox="0 0 512.000000 512.000000"
 preserveAspectRatio="xMidYMid meet">

<g transform="translate(0.000000,512.000000) scale(0.100000,-0.100000)"
fill="#000000" stroke="none">
<path d="M3252 4560 c-18 -11 -37 -32 -42 -46 -6 -14 -10 -124 -10 -245 l0
-219 -809 0 c-681 0 -822 -2 -897 -15 -537 -93 -956 -512 -1049 -1049 -19
-113 -19 -304 0 -425 19 -116 67 -264 109 -333 108 -181 387 -104 389 107 1
32 -9 74 -26 116 -86 213 -81 468 12 672 106 236 317 411 575 480 79 21 99 21
889 24 l807 4 0 -223 c0 -157 4 -230 13 -247 18 -37 71 -64 110 -57 22 4 154
103 427 321 217 174 407 329 423 345 29 32 36 84 17 121 -12 21 -797 653 -839
675 -36 19 -60 17 -99 -6z"/>
<path d="M4345 2991 c-83 -21 -146 -83 -165 -160 -12 -53 -8 -76 39 -211 55
-156 61 -301 21 -476 -70 -303 -308 -543 -623 -626 -80 -22 -98 -22 -889 -25
l-808 -4 0 223 c0 157 -4 230 -13 247 -18 37 -71 64 -110 57 -23 -4 -152 -101
-427 -322 -217 -173 -407 -328 -423 -345 -35 -38 -37 -96 -4 -133 12 -14 202
-169 422 -345 275 -220 410 -323 432 -327 39 -7 92 20 110 57 9 17 13 90 13
246 l0 222 848 3 847 4 100 26 c184 50 327 118 465 222 238 179 402 426 476
721 35 135 44 366 20 505 -21 124 -70 275 -109 341 -46 77 -142 120 -222 100z"/>
</g>
</svg>
