<?xml version="1.0" encoding="UTF-8"?>
<!DOCTYPE svg PUBLIC "-//W3C//DTD SVG 1.1//EN" "http://www.w3.org/Graphics/SVG/1.1/DTD/svg11.dtd">
<svg xmlns="http://www.w3.org/2000/svg" version="1.1" width="512px" height="512px" style="shape-rendering:geometricPrecision; text-rendering:geometricPrecision; image-rendering:optimizeQuality; fill-rule:evenodd; clip-rule:evenodd" xmlns:xlink="http://www.w3.org/1999/xlink">
<g><path style="opacity:0.982" fill="#000000" d="M 149.5,-0.5 C 197.833,-0.5 246.167,-0.5 294.5,-0.5C 307.057,3.55542 315.557,11.8888 320,24.5C 330.873,78.5323 341.873,132.532 353,186.5C 364.073,173.35 374.906,160.017 385.5,146.5C 377.331,133.173 377.831,120.173 387,107.5C 391.833,102 396.667,96.5 401.5,91C 405.453,88.1901 409.787,86.1901 414.5,85C 421.946,84.32 429.28,84.6534 436.5,86C 441.378,80.7905 445.878,75.2905 450,69.5C 457.135,62.503 464.968,61.6696 473.5,67C 480.267,75.3035 480.1,83.4701 473,91.5C 468.5,96.6667 464,101.833 459.5,107C 467.293,119.342 467.459,131.842 460,144.5C 454.518,151.283 448.685,157.783 442.5,164C 432.087,170.272 421.254,171.105 410,166.5C 358.543,228.959 306.71,291.125 254.5,353C 248.509,353.499 242.509,353.666 236.5,353.5C 236.5,324.5 236.5,295.5 236.5,266.5C 243.841,266.666 251.174,266.5 258.5,266C 267.972,261.249 270.472,254.082 266,244.5C 264.337,242.083 262.171,240.25 259.5,239C 251.92,237.604 244.253,237.104 236.5,237.5C 236.5,227.833 236.5,218.167 236.5,208.5C 243.841,208.666 251.174,208.5 258.5,208C 267.972,203.249 270.472,196.082 266,186.5C 264.127,184.291 261.96,182.458 259.5,181C 251.905,179.644 244.238,179.144 236.5,179.5C 236.5,170.167 236.5,160.833 236.5,151.5C 244.238,151.856 251.905,151.356 259.5,150C 268.483,144.873 270.65,137.706 266,128.5C 264.062,125.894 261.562,124.061 258.5,123C 251.174,122.5 243.841,122.334 236.5,122.5C 236.5,112.833 236.5,103.167 236.5,93.5C 243.175,93.6663 249.842,93.4996 256.5,93C 266.506,89.4869 270.006,82.6535 267,72.5C 265.108,68.9421 262.275,66.4421 258.5,65C 234.167,64.3333 209.833,64.3333 185.5,65C 174.692,70.7887 172.692,78.7887 179.5,89C 181.888,90.8605 184.554,92.1939 187.5,93C 194.158,93.4996 200.825,93.6663 207.5,93.5C 207.5,103.167 207.5,112.833 207.5,122.5C 200.159,122.334 192.826,122.5 185.5,123C 175.746,127.67 173.246,134.836 178,144.5C 179.663,146.917 181.829,148.75 184.5,150C 192.095,151.356 199.762,151.856 207.5,151.5C 207.5,160.833 207.5,170.167 207.5,179.5C 199.762,179.144 192.095,179.644 184.5,181C 173.351,188.856 172.685,197.523 182.5,207C 190.749,208.406 199.083,208.906 207.5,208.5C 207.5,218.167 207.5,227.833 207.5,237.5C 199.747,237.104 192.08,237.604 184.5,239C 175.499,244.007 173.333,251.174 178,260.5C 179.938,263.106 182.438,264.939 185.5,266C 192.826,266.5 200.159,266.666 207.5,266.5C 207.5,295.5 207.5,324.5 207.5,353.5C 157.833,353.5 108.167,353.5 58.5,353.5C 80.0096,243.452 101.843,133.452 124,23.5C 128.839,11.4909 137.339,3.49088 149.5,-0.5 Z"/></g>
<g><path style="opacity:0.956" fill="#000000" d="M 366.5,263.5 C 367.649,263.791 368.316,264.624 368.5,266C 374.491,295.119 380.157,324.286 385.5,353.5C 354.493,353.833 323.493,353.5 292.5,352.5C 317.19,322.814 341.856,293.147 366.5,263.5 Z"/></g>
<g><path style="opacity:0.993" fill="#000000" d="M 390.5,511.5 C 278.167,511.5 165.833,511.5 53.5,511.5C 40.2492,507.05 33.2492,497.716 32.5,483.5C 38.5959,449.854 45.2626,416.354 52.5,383C 165.5,382.333 278.5,382.333 391.5,383C 398.801,416.507 405.468,450.174 411.5,484C 410.249,497.729 403.249,506.896 390.5,511.5 Z"/></g>
</svg>
