<?xml version="1.0" encoding="UTF-8"?>
<!DOCTYPE svg PUBLIC "-//W3C//DTD SVG 1.1//EN" "http://www.w3.org/Graphics/SVG/1.1/DTD/svg11.dtd">
<svg xmlns="http://www.w3.org/2000/svg" version="1.1" width="512px" height="512px" style="shape-rendering:geometricPrecision; text-rendering:geometricPrecision; image-rendering:optimizeQuality; fill-rule:evenodd; clip-rule:evenodd" xmlns:xlink="http://www.w3.org/1999/xlink">
<g><path style="opacity:0.988" fill="#000000" d="M 11.5,-0.5 C 15.5,-0.5 19.5,-0.5 23.5,-0.5C 25.0188,0.409824 26.6854,1.24316 28.5,2C 188.721,162.221 348.887,322.387 509,482.5C 509.757,484.315 510.59,485.981 511.5,487.5C 511.5,491.5 511.5,495.5 511.5,499.5C 510.024,501.769 508.524,504.102 507,506.5C 504.521,508.314 502.021,509.981 499.5,511.5C 495.167,511.5 490.833,511.5 486.5,511.5C 457.923,484.425 429.757,456.758 402,428.5C 404.472,445.534 407.472,462.534 411,479.5C 412.374,495.593 405.54,506.26 390.5,511.5C 278.167,511.5 165.833,511.5 53.5,511.5C 40.2492,507.05 33.2492,497.716 32.5,483.5C 38.5959,449.854 45.2626,416.354 52.5,383C 153.5,382.667 254.5,382.333 355.5,382C 346.167,372.667 336.833,363.333 327.5,354C 315.819,353.833 304.152,353.333 292.5,352.5C 297.689,346.478 302.689,340.312 307.5,334C 300.986,327.319 294.319,320.819 287.5,314.5C 276.342,327.161 265.342,339.994 254.5,353C 248.509,353.499 242.509,353.666 236.5,353.5C 236.5,324.5 236.5,295.5 236.5,266.5C 237.552,266.649 238.552,266.483 239.5,266C 229,255.5 218.5,245 208,234.5C 207.517,235.448 207.351,236.448 207.5,237.5C 199.747,237.104 192.08,237.604 184.5,239C 175.499,244.007 173.333,251.174 178,260.5C 179.938,263.106 182.438,264.939 185.5,266C 192.826,266.5 200.159,266.666 207.5,266.5C 207.5,295.5 207.5,324.5 207.5,353.5C 157.833,353.5 108.167,353.5 58.5,353.5C 72.8429,279.285 87.5095,205.119 102.5,131C 102.333,130.167 102.167,129.333 102,128.5C 68.6667,95.1667 35.3333,61.8333 2,28.5C 1.24316,26.6854 0.409824,25.0188 -0.5,23.5C -0.5,19.5 -0.5,15.5 -0.5,11.5C 0.97576,9.23138 2.47576,6.89805 4,4.5C 6.47945,2.68589 8.97945,1.01922 11.5,-0.5 Z"/></g>
<g><path style="opacity:0.98" fill="#000000" d="M 149.5,-0.5 C 197.833,-0.5 246.167,-0.5 294.5,-0.5C 307.057,3.55542 315.557,11.8888 320,24.5C 330.873,78.5323 341.873,132.532 353,186.5C 364.073,173.35 374.906,160.017 385.5,146.5C 376.767,130.558 378.6,115.892 391,102.5C 395.983,95.1815 402.483,89.6815 410.5,86C 414.264,85.0154 418.097,84.5154 422,84.5C 426.942,84.649 431.775,85.149 436.5,86C 441.378,80.7905 445.878,75.2905 450,69.5C 457.135,62.503 464.968,61.6696 473.5,67C 478.922,73.2833 479.755,80.1166 476,87.5C 470.856,94.2783 465.356,100.778 459.5,107C 468.114,121.361 467.281,135.194 457,148.5C 451.833,155 446,160.833 439.5,166C 429.698,170.433 419.865,170.6 410,166.5C 385.368,196.964 360.201,226.964 334.5,256.5C 301.739,224.239 269.239,191.905 237,159.5C 236.503,156.854 236.336,154.187 236.5,151.5C 244.238,151.856 251.905,151.356 259.5,150C 268.483,144.873 270.65,137.706 266,128.5C 264.062,125.894 261.562,124.061 258.5,123C 251.174,122.5 243.841,122.334 236.5,122.5C 236.5,112.833 236.5,103.167 236.5,93.5C 243.175,93.6663 249.842,93.4996 256.5,93C 266.506,89.4869 270.006,82.6535 267,72.5C 265.108,68.9421 262.275,66.4421 258.5,65C 234.167,64.3333 209.833,64.3333 185.5,65C 174.692,70.7887 172.692,78.7887 179.5,89C 181.888,90.8605 184.554,92.1939 187.5,93C 194.158,93.4996 200.825,93.6663 207.5,93.5C 207.5,103.167 207.5,112.833 207.5,122.5C 204.813,122.664 202.146,122.497 199.5,122C 173.333,95.8333 147.167,69.6667 121,43.5C 120.252,21.9554 129.752,7.28874 149.5,-0.5 Z"/></g>
<g><path style="opacity:0.849" fill="#000000" d="M 366.5,263.5 C 367.649,263.791 368.316,264.624 368.5,266C 370.734,276.165 372.568,286.332 374,296.5C 367.652,290.319 361.485,283.986 355.5,277.5C 359.175,272.803 362.842,268.136 366.5,263.5 Z"/></g>
</svg>
