<?xml version="1.0" standalone="no"?>
<!DOCTYPE svg PUBLIC "-//W3C//DTD SVG 20010904//EN"
 "http://www.w3.org/TR/2001/REC-SVG-20010904/DTD/svg10.dtd">
<svg version="1.0" xmlns="http://www.w3.org/2000/svg"
 width="2133.000000pt" height="2133.000000pt" viewBox="0 0 2133.000000 2133.000000"
 preserveAspectRatio="xMidYMid meet">

<g transform="translate(0.000000,2133.000000) scale(0.100000,-0.100000)"
fill="#000000" stroke="none">
<path d="M648 21320 c-174 -30 -359 -138 -466 -273 -114 -144 -162 -273 -169
-452 -8 -206 15 -267 172 -450 243 -284 597 -646 2500 -2560 l1542 -1550 -94
-64 c-1178 -797 -1991 -2031 -2262 -3431 -65 -337 -92 -798 -73 -1248 23 -538
84 -886 239 -1367 174 -540 317 -784 546 -933 148 -96 310 -138 503 -129 385
17 700 259 810 622 25 81 27 105 28 245 0 184 -13 241 -118 523 -105 280 -173
554 -213 852 -22 167 -25 694 -5 860 83 677 312 1235 728 1775 105 137 419
455 557 564 191 152 420 302 595 390 l69 34 4243 -4243 4243 -4243 -264 -6
c-257 -6 -4417 -26 -5311 -26 l-448 0 0 703 c0 880 -13 1162 -56 1253 -80 168
-361 288 -504 214 -170 -87 -593 -409 -1745 -1331 -1130 -904 -1685 -1358
-1757 -1438 -139 -152 -144 -395 -12 -541 148 -164 2747 -2246 3299 -2642 192
-138 248 -168 312 -168 121 0 252 60 343 157 108 116 110 134 117 1194 l5 837
1131 6 c623 3 2211 11 3530 16 l2398 11 192 50 c106 27 234 61 284 76 l93 26
667 -661 c368 -364 1251 -1244 1963 -1958 1643 -1645 1880 -1873 2028 -1952
76 -41 176 -56 317 -49 132 7 202 25 315 80 121 59 247 185 312 312 74 143 93
219 92 355 0 96 -5 128 -27 196 -24 72 -36 91 -103 165 -1117 1226 -19039
19158 -20066 20076 -116 104 -304 152 -480 123z"/>
<path d="M13706 19069 c-21 -5 -68 -23 -105 -41 -88 -42 -214 -165 -230 -225
-25 -93 -33 -315 -38 -1105 l-5 -828 -2807 0 -2806 0 880 -881 880 -881 1928
7 1927 7 0 -703 c0 -882 13 -1164 56 -1255 82 -171 361 -288 509 -212 177 91
1000 725 2265 1747 974 786 1222 993 1262 1053 70 103 96 262 64 382 -15 53
-26 71 -74 118 -217 211 -2573 2113 -3262 2635 -196 148 -259 181 -355 188
-27 2 -67 0 -89 -6z"/>
<path d="M18094 12461 c-178 -48 -332 -140 -460 -273 -170 -177 -254 -393
-241 -617 7 -115 42 -247 156 -583 134 -394 188 -633 212 -948 29 -382 -29
-888 -151 -1305 -107 -364 -298 -747 -528 -1058 l-82 -112 627 -627 c346 -346
631 -628 634 -628 10 0 152 176 251 310 325 440 570 912 754 1454 197 580 268
1043 268 1756 0 364 -8 505 -45 745 -55 364 -201 885 -346 1231 -92 218 -132
283 -253 404 -121 122 -217 181 -370 231 -82 27 -113 32 -225 35 -106 3 -143
1 -201 -15z"/>
</g>
</svg>
